<svg width="24" height="24" viewBox="0 0 24 24" fill="none" xmlns="http://www.w3.org/2000/svg">
<path d="M3.4679 2.40002H20.5439C21.1319 2.40002 21.5999 2.86802 21.5999 3.45602V20.544C21.5999 21.12 21.1319 21.6 20.5439 21.6H15.6479V14.16H18.1439L18.5159 11.268H15.6479V9.42002C15.6479 8.58002 15.8879 8.00402 17.0879 8.00402H18.6239V5.41202C18.3599 5.37602 17.4479 5.30402 16.3919 5.30402C14.1719 5.30402 12.6599 6.64803 12.6599 9.13202V11.268H10.1519V14.16H12.6599V21.6H3.4679C3.18672 21.6 2.91687 21.4892 2.71692 21.2915C2.51698 21.0938 2.40306 20.8252 2.3999 20.544V3.45602C2.3999 2.86802 2.8799 2.40002 3.4679 2.40002Z" fill="white"/>
</svg>
