<svg width="40" height="40" viewBox="0 0 40 40" fill="none" xmlns="http://www.w3.org/2000/svg">
<g id="first-aid-kit_1141422 1" clip-path="url(#clip0_42_8)">
<g id="surface1">
<path id="Vector" d="M22.5562 1.48438V7.41943H20.2124V3.82812H12.9468V7.41943H10.603V1.48438H22.5562Z" fill="white"/>
<path id="Vector_2" d="M20.2124 3.82812H16.5796V1.48438H22.5562V7.41943H20.2124V3.82812Z" fill="#B5EBEA"/>
<path id="Vector_3" d="M0 6.22119H33.1595V30.7573H0V6.22119Z" fill="white"/>
<path id="Vector_4" d="M16.5796 6.22119H33.1595V30.7573H16.5796V6.22119Z" fill="#B5EBEA"/>
<path id="Vector_5" d="M23.7408 15.0532V21.9252H19.9908V25.6752H13.1191V21.9252H9.36914V15.0532H13.1191V11.3032H19.9908V15.0532H23.7408Z" fill="#A6E4E4"/>
<path id="Vector_6" d="M23.7405 15.0532V21.9252H19.9905V25.6752H16.5796V11.3032H19.9905V15.0532H23.7405Z" fill="#4FCDCE"/>
<path id="Vector_7" d="M40.0002 24.3151V26.9445C40.0002 29.2339 39.3712 31.4776 38.1801 33.4329C36.9899 35.3881 35.2858 36.9781 33.2524 38.0288L32.311 38.5156L31.3698 38.0288C29.3355 36.9781 27.6314 35.3881 26.4412 33.4329C25.251 31.4776 24.6221 29.2339 24.6221 26.9445V24.3151L25.3234 24.0704C26.5151 23.6553 27.4565 22.7404 27.907 21.5606L28.1636 20.8877H36.458L36.7153 21.5606C37.1657 22.7404 38.1069 23.6553 39.2986 24.0704L40.0002 24.3151Z" fill="white"/>
<path id="Vector_8" d="M39.9998 24.3151V26.9445C39.9998 29.2339 39.3708 31.4776 38.1797 33.4329C36.9895 35.3881 35.2854 36.9781 33.252 38.0288L32.3105 38.5156V20.8877H36.4576L36.7148 21.5606C37.1653 22.7404 38.1064 23.6553 39.2982 24.0704L39.9998 24.3151Z" fill="#B5EBEA"/>
<path id="Vector_9" d="M37.0475 27.0133L32.3106 31.5912L31.8077 32.0774L28.2466 28.7141L29.8561 27.0093L31.7888 28.8358L32.3106 28.3314L35.4185 25.3281L37.0475 27.0133Z" fill="#2DDBDC"/>
<path id="Vector_10" d="M37.0475 27.0133L32.3105 31.5912V28.3314L35.4185 25.3281L37.0475 27.0133Z" fill="#27BDBE"/>
</g>
</g>
<defs>
<clipPath id="clip0_42_8">
<rect width="40" height="40" fill="white"/>
</clipPath>
</defs>
</svg>
