<svg width="876" height="865" viewBox="0 0 876 865" fill="none" xmlns="http://www.w3.org/2000/svg">
<path d="M603.729 332.157L603.729 332.157C609.223 341.061 606.452 352.729 597.539 358.223L597.801 358.648L597.539 358.223C588.634 363.716 576.967 360.946 571.473 352.032C545.235 309.463 499.758 284.041 449.819 284.041C371.086 284.041 307.042 348.085 307.042 426.818C307.042 505.551 371.086 569.595 449.819 569.595C500.194 569.595 547.379 542.589 572.967 499.125C578.274 490.107 589.893 487.101 598.903 492.408L599.157 491.977L598.903 492.408C607.921 497.715 610.927 509.326 605.62 518.344C573.259 573.33 513.561 607.491 449.819 607.491C350.198 607.491 269.146 526.447 269.146 426.826C269.146 327.206 350.198 246.153 449.819 246.153C513.008 246.153 570.538 278.298 603.729 332.157Z" stroke="#27BDBE" stroke-opacity="0.2"/>
<path d="M688.557 444.069L688.596 443.533H688.059H449.818C439.358 443.533 430.874 435.05 430.874 424.589C430.874 414.129 439.358 405.646 449.818 405.646H708.193C718.653 405.646 727.136 414.129 727.136 424.589C727.136 424.874 727.116 425.156 727.095 425.454C727.089 425.525 727.084 425.597 727.079 425.67L727.077 425.703L727.079 425.737C727.085 425.82 727.091 425.901 727.096 425.98C727.117 426.272 727.136 426.541 727.136 426.818C727.136 579.73 602.73 704.136 449.818 704.136C296.906 704.136 172.5 579.73 172.5 426.818C172.5 273.906 296.906 149.5 449.818 149.5C546.836 149.5 638.087 201.277 687.954 284.631C693.326 293.609 690.401 305.244 681.423 310.616C672.446 315.988 660.81 313.063 655.438 304.086C612.377 232.106 533.591 187.396 449.818 187.396C317.793 187.396 210.396 294.802 210.396 426.818C210.396 558.835 317.802 666.24 449.818 666.24C576.027 666.24 679.673 568.06 688.557 444.069Z" stroke="#27BDBE" stroke-opacity="0.2"/>
</svg>
