<svg width="488" height="488" viewBox="0 0 488 488" fill="none" xmlns="http://www.w3.org/2000/svg">
<path d="M453.73 258.969L453.769 258.433H453.232H244.363C235.227 258.433 227.817 251.023 227.817 241.887C227.817 232.75 235.227 225.34 244.363 225.34H470.883C480.02 225.34 487.43 232.75 487.43 241.887C487.43 242.133 487.412 242.378 487.394 242.639C487.389 242.701 487.385 242.765 487.38 242.83L487.378 242.863L487.38 242.897C487.385 242.971 487.39 243.043 487.395 243.113C487.413 243.368 487.43 243.6 487.43 243.841C487.43 377.867 378.389 486.907 244.363 486.907C110.338 486.907 1.29688 377.867 1.29688 243.841C1.29688 109.815 110.338 0.773987 244.363 0.773987C329.399 0.773987 409.38 46.156 453.087 119.215L453.516 118.959L453.087 119.215C457.779 127.057 455.224 137.22 447.383 141.912C439.541 146.604 429.378 144.049 424.686 136.208C386.923 73.0839 317.83 33.8745 244.363 33.8745C128.582 33.8745 34.3974 128.066 34.3974 243.841C34.3974 359.615 128.589 453.807 244.363 453.807C355.045 453.807 445.94 367.705 453.73 258.969Z" stroke="white"/>
</svg>
