<svg width="40" height="40" viewBox="0 0 40 40" fill="none" xmlns="http://www.w3.org/2000/svg">
<g id="life-insurance_1141397 1">
<g id="surface1">
<path id="Vector" d="M28.2364 8.42182C27.4823 9.80091 26.3025 10.9111 25.2619 11.8901C25.0831 12.0589 24.9058 12.2261 24.7324 12.3925C24.0729 13.0254 23.4089 13.6324 22.7665 14.2199C22.1345 14.7972 21.4814 15.3951 20.8429 16.0076L20.0382 16.7803L20.0312 16.7873L19.2194 16.0076C18.581 15.3951 17.9279 14.7972 17.2959 14.2199C16.6535 13.6324 15.9894 13.0254 15.33 12.3925C15.1566 12.2261 14.9793 12.0589 14.8002 11.8901C14.2798 11.4009 13.7244 10.8782 13.2056 10.3057C12.6859 9.73377 12.2025 9.11182 11.8259 8.42182C10.7969 6.54133 10.828 4.44813 11.9117 2.67842C13.2557 0.482989 15.1417 0.0102719 16.4878 0.000201171H16.5308C17.6475 0.000201171 18.7491 0.322772 19.7202 0.935259L20.0312 1.12996L20.0382 1.12538L20.3452 0.933733C21.3251 0.315142 22.4445 -0.00925931 23.5743 0.000201171C24.9207 0.0102719 26.8067 0.482989 28.1504 2.67842C29.2341 4.44813 29.2655 6.54133 28.2364 8.42182Z" fill="#A6E4E4"/>
<path id="Vector_2" d="M38.5128 10.4845V23.6269L31.7773 34.926V39.9998H8.29894V34.926L1.5625 23.6269V10.4845C1.5625 8.56097 3.12836 6.99512 5.05249 6.99512C6.97692 6.99512 8.54186 8.56097 8.54186 10.4845V19.9336L9.07714 20.486C9.25536 20.1171 9.49523 19.778 9.7882 19.4914C11.189 18.1133 13.4555 18.1255 14.8407 19.5195L20.0381 24.7496L25.2353 19.5195C26.6205 18.1255 28.8873 18.1133 30.2881 19.4914C30.5444 19.7429 30.7638 20.0334 30.9311 20.3514C30.9546 20.396 30.9771 20.4405 30.9991 20.486L31.5344 19.9336V10.4845C31.5344 8.56097 33.0993 6.99512 35.0235 6.99512C36.9479 6.99512 38.5128 8.56097 38.5128 10.4845Z" fill="white"/>
<path id="Vector_3" d="M20.8428 16.0076L20.0381 16.7803V1.12508L20.3451 0.933733C21.325 0.314837 22.4444 -0.00925913 23.5742 0.000201352C24.9206 0.0102721 26.8066 0.482989 28.1503 2.67842C29.2339 4.44813 29.2654 6.54133 28.2363 8.42182C27.4822 9.80091 26.3024 10.9111 25.2618 11.8901C25.0829 12.0589 24.9056 12.2261 24.7323 12.3925C24.0728 13.0254 23.4087 13.6324 22.7664 14.2199C22.1343 14.7972 21.4813 15.3951 20.8428 16.0076Z" fill="#4FCDCE"/>
<path id="Vector_4" d="M38.5128 10.4845V23.6269L31.7773 34.926V39.9998H20.0381V24.7496L25.2352 19.5195C26.6204 18.1255 28.8873 18.1133 30.288 19.4914C30.5444 19.7429 30.7638 20.0334 30.931 20.3514C30.9545 20.396 30.9771 20.4405 30.9991 20.486L31.5344 19.9336V10.4845C31.5344 8.56097 33.0993 6.99512 35.0234 6.99512C36.9479 6.99512 38.5128 8.56097 38.5128 10.4845Z" fill="#B5EBEA"/>
</g>
</g>
</svg>
