<svg width="40" height="40" viewBox="0 0 40 40" fill="none" xmlns="http://www.w3.org/2000/svg">
<g id="protection_1141413 1" clip-path="url(#clip0_42_45)">
<g id="surface1">
<path id="Vector" d="M28.3316 24.241V31.571H4.21875V24.241C4.21875 19.7662 6.66931 15.8527 10.2988 13.7729C12.0612 12.7628 14.1016 12.1851 16.2747 12.1851C18.2983 12.1851 20.2069 12.6859 21.8832 13.5709C25.715 15.5917 28.3316 19.6164 28.3316 24.241Z" fill="#A6E4E4"/>
<path id="Vector_2" d="M28.3317 24.2413V31.5707H16.2751V12.1851C22.9237 12.1851 28.3317 17.5931 28.3317 24.2413Z" fill="#4FCDCE"/>
<path id="Vector_3" d="M23.6741 7.32086C23.6741 11.4005 20.355 14.7198 16.2751 14.7198C12.1956 14.7198 8.87646 11.4005 8.87646 7.32086C8.87646 3.24097 12.1956 -0.078125 16.2751 -0.078125C20.355 -0.078125 23.6741 3.24127 23.6741 7.32086Z" fill="white"/>
<path id="Vector_4" d="M23.6741 7.32086C23.6741 11.4005 20.355 14.7198 16.2751 14.7198V-0.078125C20.355 -0.078125 23.6741 3.24127 23.6741 7.32086Z" fill="#8EDBDA"/>
<path id="Vector_5" d="M35.8799 23.9795V26.9315C35.8799 29.5016 35.1737 32.0209 33.8367 34.2157C32.5004 36.4108 30.5872 38.1958 28.3045 39.3756L27.2477 39.9219L26.1909 39.3756C23.9072 38.1958 21.9941 36.4108 20.6577 34.2157C19.3214 32.0209 18.6155 29.5016 18.6155 26.9315V23.9795L19.4028 23.7048C20.7407 23.2388 21.7975 22.2119 22.3032 20.8875L22.5913 20.1318H31.9031L32.1921 20.8875C32.6978 22.2119 33.7546 23.2388 35.0925 23.7048L35.8799 23.9795Z" fill="white"/>
<path id="Vector_6" d="M35.8798 23.9795V26.9315C35.8798 29.5016 35.1736 32.0209 33.8366 34.2157C32.5002 36.4108 30.5871 38.1958 28.3044 39.3756L27.2476 39.9219V20.1318H31.903L32.192 20.8875C32.6977 22.2119 33.7545 23.2388 35.0924 23.7048L35.8798 23.9795Z" fill="#B5EBEA"/>
<path id="Vector_7" d="M31.994 27.3331L27.2476 31.9205L26.7434 32.4075L23.1753 29.0375L24.7878 27.3294L26.7245 29.1595L27.2476 28.6539L30.3616 25.6445L31.994 27.3331Z" fill="#2DDBDC"/>
<path id="Vector_8" d="M31.994 27.3331L27.2476 31.9205V28.6539L30.3616 25.6445L31.994 27.3331Z" fill="#27BDBE"/>
</g>
</g>
<defs>
<clipPath id="clip0_42_45">
<rect width="40" height="40" fill="white"/>
</clipPath>
</defs>
</svg>
