<svg width="40" height="40" viewBox="0 0 40 40" fill="none" xmlns="http://www.w3.org/2000/svg">
<g id="secure_1141387 1" clip-path="url(#clip0_42_81)">
<g id="surface1">
<path id="Vector" d="M37.3499 7.948V13.3716C37.3499 18.6942 35.8875 23.9102 33.1195 28.4567C30.3525 33.0032 26.3904 36.698 21.6626 39.1422L20.0031 40L18.3435 39.1422C13.6157 36.698 9.65393 33.0032 6.8866 28.4567C4.11865 23.9102 2.65625 18.6942 2.65625 13.3716V7.948L3.43933 7.67487C6.72638 6.52893 9.32373 4.00543 10.5661 0.751038L10.8533 0H29.1528L29.44 0.751038C30.6824 4.00543 33.2797 6.52893 36.5668 7.67487L37.3499 7.948Z" fill="white" fill-opacity="0.59"/>
<path id="Vector_2" d="M37.3497 7.948V13.3716C37.3497 18.6942 35.8873 23.9102 33.1194 28.4567C30.3524 33.0032 26.3903 36.698 21.6625 39.1422L20.0029 40V0H29.1527L29.4402 0.751038C30.6823 4.00543 33.2799 6.52893 36.567 7.67487L37.3497 7.948Z" fill="#4FCDCE"/>
<path id="Vector_3" d="M32.897 10.7283L32.8955 14.8527C32.6752 18.7251 31.5558 22.4693 29.6582 25.6791C27.6669 29.0464 24.8056 31.8315 21.384 33.7324L21.3528 33.7495L20.0031 34.4468L18.6221 33.7324C15.2005 31.8315 12.3392 29.0464 10.3482 25.6791C8.45032 22.4693 7.33124 18.7251 7.1109 14.8527L7.10938 14.7865V10.7283L7.76398 10.4081C10.8502 8.89905 12.0505 7.50562 13.5745 4.95343L13.9145 4.38428H26.0916L26.4316 4.95343C27.9559 7.50562 29.1559 8.89905 32.2421 10.4081L32.897 10.7283Z" fill="white"/>
<path id="Vector_4" d="M32.8969 10.7283L32.8954 14.8527C32.675 18.7251 31.5557 22.4693 29.6581 25.6791C27.6668 29.0464 24.8055 31.8315 21.3839 33.7324L21.3527 33.7495L20.0029 34.4468V4.38428H26.0915L26.4315 4.95343C27.9558 7.50562 29.1558 8.89905 32.242 10.4081L32.8969 10.7283Z" fill="#B5EBEA"/>
<path id="Vector_5" d="M27.5269 14.355L20.0031 21.6273L18.4299 23.1474L12.4792 17.5276L14.0829 15.8299L18.4113 19.918L20.0031 18.3793L25.9039 12.6753L27.5269 14.355Z" fill="#2DDBDC"/>
<path id="Vector_6" d="M27.5267 14.355L20.0029 21.6273V18.3793L25.9038 12.6753L27.5267 14.355Z" fill="#27BDBE"/>
</g>
</g>
<defs>
<clipPath id="clip0_42_81">
<rect width="40" height="40" fill="white"/>
</clipPath>
</defs>
</svg>
