<svg width="40" height="40" viewBox="0 0 40 40" fill="none" xmlns="http://www.w3.org/2000/svg">
<g id="verification_3556584 1" clip-path="url(#clip0_1_1368)">
<g id="Group">
<path id="Vector" d="M38.7503 16.7247C38.4037 16.1708 38.0763 15.6475 37.9538 15.1894C37.8219 14.6957 37.8426 14.0573 37.8646 13.3814C37.8998 12.2954 37.9398 11.0643 37.3224 9.99724C36.6965 8.91528 35.6017 8.33307 34.636 7.81945C34.0465 7.50598 33.4898 7.20992 33.1399 6.86C32.7901 6.51016 32.494 5.95339 32.1805 5.36402C31.6668 4.39811 31.0846 3.30346 30.0026 2.67748C28.9355 2.06008 27.7046 2.09976 26.6184 2.13535C25.9424 2.15717 25.3041 2.17795 24.8105 2.04606C24.3523 1.92354 23.8291 1.59614 23.275 1.24953C22.3391 0.663937 21.278 0 20 0C18.722 0 17.6609 0.663937 16.7248 1.24961C16.1709 1.59622 15.6476 1.9237 15.1894 2.04614C14.6957 2.17803 14.0574 2.15724 13.3814 2.13543C12.2954 2.1 11.0644 2.06016 9.99732 2.67756C8.91528 3.30354 8.33315 4.39827 7.81945 5.36409C7.50598 5.95346 7.20984 6.51024 6.86 6.86008C6.51016 7.20984 5.95346 7.50598 5.36402 7.81945C4.39819 8.33307 3.30354 8.91528 2.67748 9.99732C2.06008 11.0644 2.10008 12.2954 2.13528 13.3815C2.15724 14.0574 2.17795 14.6958 2.04598 15.1895C1.92346 15.6477 1.59614 16.1709 1.24945 16.7249C0.663937 17.6609 0 18.722 0 20C0 21.278 0.663937 22.3391 1.24969 23.2753C1.5963 23.8292 1.9237 24.3525 2.04622 24.8106C2.17811 25.3043 2.1574 25.9427 2.13543 26.6186C2.10016 27.7046 2.06016 28.9357 2.67756 30.0028C3.30354 31.0847 4.39827 31.6669 5.36402 32.1805C5.95346 32.494 6.51016 32.7901 6.86008 33.14C7.20992 33.4898 7.50598 34.0466 7.81953 34.636C8.33315 35.6019 8.91535 36.6965 9.9974 37.3225C11.0645 37.9399 12.2953 37.9002 13.3816 37.8646C14.0575 37.8428 14.6959 37.822 15.1895 37.9539C15.6477 38.0765 16.1709 38.4039 16.725 38.7505C17.6609 39.3361 18.722 40 20 40C21.278 40 22.3391 39.3361 23.2752 38.7504C23.8291 38.4038 24.3524 38.0763 24.8106 37.9539C25.3043 37.8219 25.9426 37.8427 26.6186 37.8646C27.7046 37.9002 28.9357 37.9399 30.0027 37.3224C31.0847 36.6965 31.6668 35.6017 32.1805 34.6359C32.494 34.0465 32.7902 33.4898 33.14 33.1399C33.4898 32.7902 34.0465 32.494 34.636 32.1805C35.6018 31.6669 36.6965 31.0847 37.3225 30.0027C37.9399 28.9356 37.8999 27.7046 37.8647 26.6185C37.8428 25.9426 37.822 25.3042 37.954 24.8105C38.0765 24.3523 38.4039 23.8291 38.7505 23.2751C39.3361 22.3391 40 21.278 40 20C40 18.722 39.3361 17.6609 38.7503 16.7247ZM36.7479 22.0222C36.324 22.6995 35.8857 23.3999 35.6717 24.2006C35.4496 25.0318 35.477 25.8774 35.5035 26.6953C35.5309 27.5398 35.5569 28.3373 35.2777 28.8198C34.9902 29.3166 34.2793 29.6946 33.5266 30.095C32.8099 30.4761 32.0689 30.8702 31.4695 31.4696C30.8702 32.069 30.476 32.81 30.0949 33.5267C29.6946 34.2794 29.3165 34.9904 28.8197 35.2778C28.3372 35.5569 27.5396 35.5311 26.6952 35.5036C25.8774 35.4771 25.0318 35.4495 24.2006 35.6717C23.3999 35.8857 22.6995 36.324 22.0221 36.7479C21.2908 37.2055 20.5999 37.6378 20 37.6378C19.4001 37.6378 18.7093 37.2055 17.9779 36.7479C17.3005 36.324 16.6001 35.8857 15.7994 35.6717C15.2419 35.5227 14.6779 35.4861 14.1201 35.4861C13.8463 35.4861 13.574 35.4949 13.3048 35.5037C12.4603 35.531 11.6628 35.5571 11.1803 35.2779C10.6835 34.9905 10.3054 34.2794 9.90512 33.5268C9.52394 32.8101 9.12984 32.0691 8.53047 31.4697C7.9311 30.8703 7.19 30.4761 6.47331 30.095C5.72063 29.6946 5.00969 29.3165 4.72228 28.8198C4.44315 28.3373 4.46906 27.5398 4.49646 26.6954C4.52299 25.8776 4.55047 25.0319 4.32835 24.2007C4.11433 23.4001 3.67606 22.6997 3.25228 22.0224C2.79449 21.2909 2.3622 20.5999 2.3622 20C2.3622 19.4001 2.79449 18.7092 3.25213 17.9778C3.67598 17.3005 4.11425 16.6001 4.32827 15.7994C4.55039 14.9682 4.52299 14.1226 4.49646 13.3047C4.46906 12.4602 4.44315 11.6627 4.72228 11.1802C5.00976 10.6834 5.72071 10.3054 6.47339 9.90504C7.19008 9.52386 7.9311 9.12976 8.53047 8.53039C9.12984 7.93102 9.52402 7.19 9.90512 6.47331C10.3054 5.72055 10.6835 5.00961 11.1803 4.7222C11.6628 4.44307 12.4605 4.46906 13.3048 4.49638C14.1226 4.52307 14.9683 4.55055 15.7994 4.32827C16.6001 4.11425 17.3005 3.67598 17.9779 3.25213C18.7092 2.79449 19.4001 2.3622 20 2.3622C20.5999 2.3622 21.2907 2.79449 22.0221 3.25213C22.6995 3.67598 23.3999 4.11425 24.2006 4.32827C25.0317 4.55039 25.8775 4.52299 26.6952 4.49638C27.5398 4.46913 28.3372 4.44307 28.8197 4.7222C29.3165 5.00961 29.6946 5.72063 30.0949 6.47331C30.4761 7.19 30.8702 7.93102 31.4695 8.53039C32.0689 9.12976 32.81 9.52394 33.5267 9.90512C34.2794 10.3054 34.9903 10.6835 35.2777 11.1802C35.5569 11.6628 35.5309 12.4603 35.5035 13.3047C35.477 14.1225 35.4495 14.9682 35.6717 15.7994C35.8857 16.6 36.3239 17.3004 36.7477 17.9777C37.2055 18.7091 37.6378 19.4001 37.6378 20C37.6378 20.5999 37.2055 21.2908 36.7479 22.0222Z" fill="#27C1C2"/>
<path id="Vector_2" d="M17.8037 22.4326L14.536 19.1649L12.8657 20.8352L17.77 25.7395L27.1172 16.7662L25.4813 15.062L17.8037 22.4326Z" fill="#27C1C2"/>
<path id="Vector_3" d="M20.0002 6.2207C12.4022 6.2207 6.2207 12.4022 6.2207 20.0002C6.2207 27.5983 12.4022 33.7798 20.0002 33.7798C27.5983 33.7798 33.7798 27.5983 33.7798 20.0002C33.7798 12.4022 27.5983 6.2207 20.0002 6.2207ZM20.0002 31.4176C13.7047 31.4176 8.58291 26.2957 8.58291 20.0002C8.58291 13.7047 13.7047 8.58291 20.0002 8.58291C26.2957 8.58291 31.4176 13.7047 31.4176 20.0002C31.4176 26.2957 26.2957 31.4176 20.0002 31.4176Z" fill="#27C1C2"/>
</g>
</g>
<defs>
<clipPath id="clip0_1_1368">
<rect width="40" height="40" fill="white"/>
</clipPath>
</defs>
</svg>
