<svg width="32" height="32" viewBox="0 0 32 32" fill="none" xmlns="http://www.w3.org/2000/svg">
<g id="viber (4) 1" clip-path="url(#clip0_1_1274)">
<g id="Layer 2">
<g id="12.viber">
<path id="background" d="M16 32C24.8366 32 32 24.8366 32 16C32 7.16344 24.8366 0 16 0C7.16344 0 0 7.16344 0 16C0 24.8366 7.16344 32 16 32Z" fill="white"/>
<g id="icon">
<path id="Vector" d="M25.2419 10.8091V10.7855C25.0273 9.9164 24.4673 9.01822 23.7328 8.26185C22.8746 7.37458 21.7818 6.67822 20.7382 6.45276H20.7164C17.6041 5.8564 14.4069 5.8564 11.2946 6.45276H11.2728C9.33458 6.87276 7.23094 8.89822 6.76185 10.7855V10.8091C6.1855 13.4256 6.1855 16.1362 6.76185 18.7528V18.7746C7.0964 20.12 8.26003 21.5346 9.60185 22.3891C10.0401 22.6747 10.5171 22.8957 11.0182 23.0455V25.1509C11.0189 25.3192 11.0697 25.4834 11.1641 25.6227C11.2585 25.762 11.3922 25.87 11.5483 25.933C11.7043 25.996 11.8755 26.0111 12.0402 25.9764C12.2048 25.9418 12.3554 25.8588 12.4728 25.7382L14.6073 23.52C15.0691 23.5455 15.5346 23.56 15.9964 23.56C17.5773 23.5595 19.1546 23.4098 20.7073 23.1128H20.7291C22.6619 22.6909 24.7673 20.6655 25.2328 18.7782V18.7564C25.8126 16.1394 25.8157 13.4275 25.2419 10.8091ZM23.5528 18.3637C23.24 19.5946 21.6437 21.1273 20.3728 21.4091C18.722 21.7253 17.042 21.8625 15.3618 21.8182C15.3455 21.8172 15.3291 21.82 15.314 21.8263C15.2989 21.8326 15.2854 21.8423 15.2746 21.8546L13.7164 23.4546L12.0582 25.1546C12.0317 25.1826 11.9974 25.202 11.9597 25.2103C11.922 25.2186 11.8827 25.2154 11.8468 25.2011C11.811 25.1868 11.7802 25.1621 11.7586 25.1301C11.737 25.0982 11.7254 25.0604 11.7255 25.0219V21.5309C11.7255 21.5029 11.7157 21.4757 11.6978 21.4541C11.6799 21.4325 11.6549 21.4179 11.6273 21.4128C11.3622 21.3498 11.1067 21.252 10.8673 21.1219C9.7873 20.5455 8.69821 19.3637 8.4473 18.3637C7.92759 15.9986 7.92759 13.5488 8.4473 11.1837C8.75821 9.95822 10.3637 8.42913 11.6255 8.14549C14.515 7.59261 17.4832 7.59261 20.3728 8.14549C21.0728 8.30185 21.8728 8.83458 22.4982 9.48913C23.0128 10.0219 23.4073 10.6364 23.5528 11.1891C24.0717 13.5525 24.0717 16.0003 23.5528 18.3637Z" fill="#27BDBE"/>
<path id="Vector_2" d="M20.4183 18.5455C20.1821 19.0846 19.776 19.5316 19.2619 19.8182C19.1006 19.8867 18.9332 19.9396 18.7619 19.9764C18.5674 19.9182 18.3819 19.8782 18.2165 19.8073C16.8382 19.271 15.5552 18.5165 14.4165 17.5728C14.0782 17.2843 13.7605 16.9727 13.4656 16.6401C12.7373 15.8013 12.1257 14.8681 11.6474 13.8655C11.4147 13.391 11.2183 12.9001 11.0183 12.411C10.8365 11.9655 11.1056 11.5019 11.3819 11.1691C11.6524 10.8606 11.9852 10.6127 12.3583 10.4419C12.4896 10.3759 12.6398 10.3579 12.783 10.3912C12.9261 10.4244 13.0531 10.5066 13.1419 10.6237C13.6065 11.1456 14.0159 11.7141 14.3637 12.3201C14.4733 12.4963 14.5108 12.7079 14.4685 12.911C14.4262 13.1141 14.3073 13.2932 14.1365 13.411C14.0456 13.4746 13.9547 13.5473 13.8765 13.6182C13.7994 13.6753 13.7329 13.7455 13.6801 13.8255C13.6345 13.9004 13.6069 13.9849 13.5993 14.0722C13.5917 14.1596 13.6044 14.2475 13.6365 14.3291C13.9874 15.2946 14.5201 16.1001 15.3165 16.6655C15.586 16.8561 15.8763 17.0153 16.1819 17.1401C16.3815 17.2486 16.6057 17.3037 16.8328 17.3001C17.2292 17.2528 17.3601 16.8146 17.6365 16.5891C17.7633 16.4853 17.9203 16.4251 18.0841 16.4176C18.2479 16.41 18.4097 16.4555 18.5456 16.5473C18.8401 16.7291 19.1237 16.9346 19.4074 17.1346C19.6879 17.3261 19.958 17.5324 20.2165 17.7528C20.3373 17.8406 20.4237 17.9679 20.4606 18.1127C20.4974 18.2575 20.4825 18.4106 20.4183 18.5455Z" fill="#27BDBE"/>
<path id="Vector_3" d="M16.5218 9.83279H16.2891C16.3636 9.82916 16.4418 9.83279 16.5218 9.83279Z" fill="#27BDBE"/>
<path id="Vector_4" d="M20.5455 15.2818C20.3636 15.2818 20.2746 15.1273 20.2618 14.9582C20.2382 14.6254 20.22 14.2909 20.1746 13.96C20.096 13.4017 19.9015 12.866 19.6036 12.3873C19.2975 11.8886 18.8901 11.4597 18.4078 11.1283C17.9255 10.797 17.379 10.5705 16.8036 10.4636C16.5418 10.4163 16.2746 10.4054 16.0109 10.3782C15.8436 10.36 15.6236 10.3491 15.5873 10.1418C15.5818 10.1015 15.5851 10.0606 15.5967 10.0217C15.6084 9.98277 15.6282 9.9468 15.6549 9.91616C15.6816 9.88553 15.7145 9.86094 15.7514 9.84404C15.7884 9.82714 15.8285 9.81832 15.8691 9.81817C15.9127 9.81566 15.9564 9.81566 16 9.81817C16.7947 9.82489 17.5756 10.0275 18.2733 10.4081C18.971 10.7887 19.5641 11.3354 20 12C20.3441 12.5356 20.5778 13.1346 20.6873 13.7618C20.7564 14.1545 20.7818 14.5582 20.8127 14.9582C20.8189 14.9974 20.8167 15.0374 20.8063 15.0757C20.7958 15.114 20.7774 15.1496 20.7521 15.1803C20.7268 15.2109 20.6953 15.2357 20.6597 15.2532C20.6241 15.2708 20.5851 15.2805 20.5455 15.2818Z" fill="#27BDBE"/>
<path id="Vector_5" d="M19.5618 14.4328C19.5607 14.4868 19.5534 14.5405 19.54 14.5928C19.5241 14.6454 19.4924 14.6918 19.4492 14.7257C19.406 14.7596 19.3534 14.7794 19.2986 14.7824C19.2438 14.7854 19.1894 14.7714 19.1428 14.7423C19.0961 14.7133 19.0596 14.6706 19.0381 14.6201C19.0181 14.5467 19.0089 14.4707 19.0109 14.3946C19.0151 13.988 18.9346 13.5848 18.7745 13.211C18.7381 13.131 18.6981 13.0492 18.6527 12.971C18.3924 12.5224 18.0061 12.1601 17.5418 11.9292C17.2616 11.7969 16.9641 11.7051 16.6581 11.6564C16.5236 11.6346 16.389 11.6219 16.2545 11.6037C16.2195 11.602 16.1852 11.593 16.1538 11.5775C16.1223 11.562 16.0944 11.5401 16.0717 11.5134C16.0491 11.4866 16.0321 11.4555 16.022 11.4219C16.0118 11.3884 16.0087 11.3531 16.0127 11.3183C16.0127 11.2826 16.0203 11.2474 16.0348 11.2149C16.0494 11.1824 16.0707 11.1533 16.0974 11.1296C16.124 11.106 16.1553 11.0882 16.1893 11.0774C16.2232 11.0667 16.2591 11.0633 16.2945 11.0674C16.8284 11.088 17.3514 11.2244 17.8272 11.4674C18.4083 11.7598 18.8823 12.2281 19.1818 12.8055C19.3504 13.1427 19.4634 13.505 19.5163 13.8783C19.5261 13.9269 19.5334 13.9761 19.5381 14.0255C19.5472 14.1346 19.5509 14.2437 19.56 14.3783C19.56 14.391 19.5618 14.4074 19.5618 14.4328Z" fill="#27BDBE"/>
<path id="Vector_6" d="M18.3165 14.1818C18.3062 14.2279 18.2823 14.2698 18.248 14.3023C18.2136 14.3347 18.1704 14.356 18.1238 14.3636H18.0838C18.0242 14.3675 17.965 14.3518 17.9151 14.319C17.8652 14.2862 17.8274 14.238 17.8074 14.1818C17.7961 14.152 17.7888 14.1208 17.7856 14.0891C17.776 13.9667 17.7578 13.8452 17.731 13.7254C17.677 13.483 17.5392 13.2673 17.3419 13.1163C17.2466 13.0479 17.1402 12.9962 17.0274 12.9636C16.8838 12.9218 16.7328 12.9327 16.591 12.8982C16.5209 12.8857 16.4586 12.846 16.4177 12.7878C16.3768 12.7295 16.3607 12.6574 16.3728 12.5873C16.3864 12.5201 16.4239 12.4601 16.4785 12.4186C16.533 12.3771 16.6008 12.3569 16.6692 12.3618C17.5019 12.4218 18.1238 12.8218 18.2838 13.7145C18.3002 13.7974 18.3118 13.8812 18.3183 13.9654C18.3285 14.0372 18.3279 14.1102 18.3165 14.1818Z" fill="#27BDBE"/>
</g>
</g>
</g>
</g>
<defs>
<clipPath id="clip0_1_1274">
<rect width="32" height="32" fill="white"/>
</clipPath>
</defs>
</svg>
