<svg width="32" height="32" viewBox="0 0 32 32" fill="none" xmlns="http://www.w3.org/2000/svg">
<g id="whatsapp 1" clip-path="url(#clip0_1_1265)">
<g id="Layer 2">
<g id="08.whatsapp">
<path id="background" d="M16 32C24.8366 32 32 24.8366 32 16C32 7.16344 24.8366 0 16 0C7.16344 0 0 7.16344 0 16C0 24.8366 7.16344 32 16 32Z" fill="white"/>
<g id="icon">
<path id="Vector" d="M21.6443 10.3557C20.3129 9.00926 18.544 8.18316 16.6569 8.02658C14.7698 7.87 12.8889 8.39327 11.3538 9.5019C9.81868 10.6105 8.73051 12.2315 8.28576 14.0721C7.84101 15.9127 8.06897 17.8516 8.92849 19.5389L8.08639 23.6273C8.07737 23.6682 8.07702 23.7104 8.08536 23.7514C8.0937 23.7924 8.11055 23.8312 8.13481 23.8652C8.16955 23.9168 8.21921 23.9565 8.27715 23.9791C8.33509 24.0017 8.39854 24.006 8.45902 23.9915L12.459 23.0421C14.1416 23.879 16.0667 24.0918 17.8915 23.6425C19.7163 23.1931 21.3225 22.1109 22.4241 20.5883C23.5257 19.0657 24.0513 17.2017 23.9074 15.3279C23.7634 13.4541 22.9592 11.6922 21.638 10.3557H21.6443ZM20.3938 20.3284C19.473 21.2475 18.2872 21.855 17.0033 22.0653C15.7194 22.2757 14.4018 22.0783 13.2359 21.501L12.6759 21.2231L10.219 21.8042V21.7726L10.7369 19.2947L10.4632 18.7557C9.86706 17.5866 9.65657 16.2587 9.86194 14.9625C10.0673 13.6664 10.678 12.4686 11.6064 11.541C12.7721 10.3765 14.3524 9.72242 16.0001 9.72242C17.6478 9.72242 19.2281 10.3765 20.3938 11.541L20.4211 11.5789C21.5717 12.7471 22.2139 14.3226 22.208 15.9622C22.2021 17.6019 21.5485 19.1727 20.3895 20.3326L20.3938 20.3284Z" fill="#27BDBE"/>
<path id="Vector_2" d="M20.177 18.5263C19.8759 19 19.398 19.5789 18.8022 19.7242C17.7496 19.9768 16.1475 19.7242 14.1412 17.8694L14.1159 17.8463C12.3707 16.2168 11.9075 14.8589 12.0107 13.7831C12.0717 13.1705 12.5812 12.6189 13.0107 12.2568C13.0789 12.1992 13.1598 12.1584 13.2466 12.1376C13.3335 12.1169 13.424 12.1167 13.5109 12.1372C13.5979 12.1576 13.6788 12.1981 13.7473 12.2555C13.8158 12.3128 13.87 12.3853 13.9054 12.4673L14.5517 13.9284C14.5939 14.0224 14.6097 14.1262 14.5975 14.2285C14.5853 14.3309 14.5454 14.428 14.4822 14.5094L14.1538 14.9305C14.0856 15.0179 14.0449 15.1237 14.037 15.2343C14.0291 15.3449 14.0544 15.4553 14.1096 15.5515C14.4216 16.0113 14.7948 16.4264 15.2191 16.7852C15.6755 17.2245 16.1932 17.5954 16.7559 17.8863C16.8586 17.9277 16.9713 17.9376 17.0797 17.9147C17.188 17.8918 17.2871 17.8372 17.3643 17.7579L17.7412 17.3747C17.8129 17.2976 17.9045 17.2418 18.006 17.2136C18.1074 17.1853 18.2147 17.1857 18.3159 17.2147L19.8528 17.6547C19.9399 17.6795 20.0199 17.7244 20.0864 17.7859C20.1529 17.8473 20.204 17.9235 20.2355 18.0084C20.2671 18.0933 20.2783 18.1844 20.2681 18.2743C20.2579 18.3643 20.2267 18.4506 20.177 18.5263Z" fill="#27BDBE"/>
</g>
</g>
</g>
</g>
<defs>
<clipPath id="clip0_1_1265">
<rect width="32" height="32" fill="white"/>
</clipPath>
</defs>
</svg>
